<?xml version="1.0" encoding="UTF-8"?>
<svg xmlns="http://www.w3.org/2000/svg" xmlns:xlink="http://www.w3.org/1999/xlink" width="20px" height="20px" viewBox="0 0 20 20" version="1.1">
<g id="surface1">
<path style=" stroke:none;fill-rule:evenodd;fill:rgb(98.431373%,98.431373%,98.823529%);fill-opacity:1;" d="M 12.164062 5.359375 C 12.160156 5.363281 12.15625 5.390625 12.15625 5.417969 L 12.15625 5.46875 L 10.957031 6.601562 C 10.296875 7.222656 9.734375 7.757812 9.707031 7.792969 C 9.5 8.050781 9.523438 8.433594 9.765625 8.667969 C 9.816406 8.71875 9.84375 8.753906 9.835938 8.757812 C 9.800781 8.78125 4.945312 13.132812 4.910156 13.171875 C 4.742188 13.359375 4.730469 13.640625 4.878906 13.847656 C 4.941406 13.941406 5.304688 14.324219 5.386719 14.390625 C 5.636719 14.585938 5.855469 14.589844 6.101562 14.402344 C 6.132812 14.378906 7.097656 13.410156 8.25 12.25 C 9.398438 11.089844 10.441406 10.035156 10.566406 9.90625 L 10.800781 9.675781 L 10.863281 9.730469 C 11.140625 9.976562 11.539062 10.003906 11.824219 9.800781 C 11.910156 9.738281 14.265625 7.511719 14.296875 7.460938 C 14.425781 7.261719 14.101562 6.988281 13.914062 7.144531 C 13.894531 7.160156 13.550781 7.484375 13.144531 7.863281 C 12.203125 8.753906 12.28125 8.683594 12.222656 8.703125 C 11.894531 8.816406 11.550781 8.511719 11.6875 8.234375 C 11.71875 8.171875 11.765625 8.125 12.339844 7.582031 C 13.308594 6.667969 13.355469 6.625 13.375 6.578125 C 13.464844 6.386719 13.167969 6.148438 12.996094 6.269531 C 12.976562 6.285156 12.605469 6.632812 12.171875 7.042969 C 11.304688 7.859375 11.339844 7.828125 11.261719 7.851562 C 10.960938 7.9375 10.660156 7.675781 10.746094 7.402344 C 10.78125 7.292969 10.808594 7.261719 11.628906 6.488281 C 12.472656 5.691406 12.457031 5.707031 12.457031 5.613281 C 12.457031 5.492188 12.230469 5.296875 12.164062 5.359375 M 6.546875 5.464844 C 6.351562 5.507812 6.199219 5.609375 6.0625 5.792969 C 5.742188 6.21875 5.730469 6.785156 6.035156 7.234375 C 6.074219 7.296875 7.839844 9.238281 8.027344 9.425781 L 8.070312 9.472656 L 8.507812 9.078125 C 8.75 8.863281 8.949219 8.679688 8.949219 8.671875 C 8.949219 8.667969 8.941406 8.636719 8.933594 8.605469 C 8.839844 8.269531 8.882812 7.914062 9.050781 7.585938 L 9.113281 7.46875 L 8.175781 6.550781 C 7.660156 6.042969 7.210938 5.609375 7.179688 5.585938 C 7.023438 5.46875 6.757812 5.417969 6.546875 5.464844 M 12.152344 10.390625 C 11.855469 10.566406 11.410156 10.625 11.027344 10.535156 C 10.964844 10.519531 10.894531 10.507812 10.878906 10.503906 C 10.84375 10.496094 10.832031 10.507812 10.371094 10.964844 C 10.113281 11.222656 9.898438 11.433594 9.898438 11.4375 C 9.890625 11.453125 10.070312 11.53125 10.171875 11.558594 C 10.410156 11.621094 10.679688 11.566406 10.863281 11.414062 C 10.894531 11.390625 10.925781 11.367188 10.933594 11.359375 C 10.941406 11.351562 11.34375 11.75 12.460938 12.867188 L 13.972656 14.382812 L 14.058594 14.425781 C 14.273438 14.527344 14.5 14.523438 14.691406 14.40625 C 14.75 14.371094 15.160156 13.992188 15.226562 13.914062 C 15.355469 13.761719 15.390625 13.527344 15.316406 13.375 C 15.285156 13.3125 12.25 10.378906 12.203125 10.367188 C 12.199219 10.367188 12.175781 10.375 12.152344 10.390625 "/>
<path style=" stroke:none;fill-rule:evenodd;fill:rgb(1.568627%,67.45098%,92.54902%);fill-opacity:1;" d="M 9.496094 0.0078125 C 8.53125 0.0625 7.707031 0.21875 6.859375 0.5 C 3.140625 1.726562 0.457031 5.050781 0.0546875 8.921875 C 0.0117188 9.335938 0.00390625 9.441406 0.00390625 10 C 0.00390625 10.558594 0.0117188 10.664062 0.0546875 11.078125 C 0.535156 15.722656 4.277344 19.464844 8.921875 19.945312 C 9.335938 19.988281 9.441406 19.996094 10 19.996094 C 14.472656 19.996094 18.285156 17.144531 19.605469 12.816406 C 19.722656 12.433594 19.851562 11.8125 19.917969 11.339844 C 19.980469 10.867188 19.996094 10.613281 19.996094 10 C 19.996094 7.304688 18.976562 4.832031 17.089844 2.941406 C 15.378906 1.230469 13.242188 0.238281 10.792969 0.0234375 C 10.609375 0.0078125 9.671875 -0.00390625 9.496094 0.0078125 M 12.289062 5.375 C 12.398438 5.429688 12.476562 5.558594 12.464844 5.652344 C 12.453125 5.722656 12.445312 5.730469 11.609375 6.515625 C 10.726562 7.347656 10.75 7.320312 10.742188 7.480469 C 10.726562 7.761719 11.074219 7.960938 11.324219 7.816406 C 11.351562 7.800781 11.730469 7.449219 12.167969 7.035156 C 12.605469 6.625 12.976562 6.277344 13 6.261719 C 13.175781 6.15625 13.449219 6.359375 13.390625 6.554688 C 13.371094 6.621094 13.398438 6.59375 12.445312 7.492188 C 11.644531 8.246094 11.667969 8.222656 11.664062 8.351562 C 11.664062 8.558594 11.835938 8.714844 12.078125 8.714844 C 12.246094 8.714844 12.1875 8.761719 13.105469 7.894531 C 13.625 7.40625 13.925781 7.125 13.953125 7.113281 C 14.15625 7.019531 14.414062 7.269531 14.308594 7.457031 C 14.285156 7.5 11.929688 9.730469 11.835938 9.800781 C 11.550781 10.007812 11.152344 9.988281 10.882812 9.753906 L 10.800781 9.683594 L 10.527344 9.960938 C 10.375 10.109375 9.332031 11.167969 8.203125 12.304688 C 7.003906 13.515625 6.125 14.394531 6.089844 14.421875 C 5.863281 14.582031 5.683594 14.589844 5.464844 14.453125 C 5.332031 14.371094 4.902344 13.925781 4.839844 13.804688 C 4.726562 13.589844 4.753906 13.34375 4.902344 13.167969 C 4.933594 13.132812 9.789062 8.78125 9.828125 8.757812 C 9.832031 8.753906 9.804688 8.714844 9.753906 8.667969 C 9.546875 8.464844 9.5 8.144531 9.636719 7.878906 C 9.6875 7.789062 9.734375 7.742188 10.996094 6.554688 L 12.140625 5.472656 L 12.144531 5.425781 C 12.144531 5.402344 12.148438 5.375 12.152344 5.367188 C 12.15625 5.347656 12.246094 5.351562 12.289062 5.375 M 6.933594 5.464844 C 7.136719 5.519531 7.101562 5.488281 8.183594 6.550781 L 9.125 7.46875 L 9.074219 7.558594 C 8.882812 7.898438 8.84375 8.265625 8.953125 8.664062 C 8.960938 8.679688 8.152344 9.425781 8.078125 9.472656 C 8.0625 9.480469 6.136719 7.386719 6.050781 7.269531 C 5.457031 6.464844 6.058594 5.226562 6.933594 5.464844 M 13.699219 11.78125 C 15.414062 13.421875 15.304688 13.3125 15.332031 13.390625 C 15.4375 13.664062 15.332031 13.859375 14.828125 14.308594 C 14.578125 14.527344 14.304688 14.566406 14.03125 14.421875 C 13.972656 14.386719 13.78125 14.203125 12.453125 12.867188 L 10.941406 11.351562 L 10.921875 11.375 C 10.703125 11.617188 10.175781 11.660156 9.902344 11.453125 C 9.886719 11.441406 10.703125 10.605469 10.824219 10.511719 L 10.855469 10.488281 L 10.960938 10.515625 C 11.375 10.617188 11.738281 10.585938 12.089844 10.410156 C 12.152344 10.382812 12.203125 10.355469 12.207031 10.355469 C 12.207031 10.355469 12.878906 10.996094 13.699219 11.78125 "/>
<path style=" stroke:none;fill-rule:evenodd;fill:rgb(35.686275%,79.215686%,95.686275%);fill-opacity:1;" d="M 6.160156 5.667969 L 6.128906 5.703125 L 6.164062 5.671875 C 6.183594 5.65625 6.199219 5.640625 6.199219 5.640625 C 6.199219 5.628906 6.1875 5.636719 6.160156 5.667969 M 7.40625 5.796875 C 7.4375 5.828125 7.464844 5.855469 7.46875 5.855469 C 7.472656 5.855469 7.449219 5.828125 7.417969 5.796875 C 7.386719 5.765625 7.359375 5.738281 7.355469 5.738281 C 7.351562 5.738281 7.375 5.765625 7.40625 5.796875 M 7.894531 6.277344 C 7.925781 6.308594 7.953125 6.332031 7.957031 6.332031 C 7.960938 6.332031 7.9375 6.308594 7.90625 6.277344 C 7.875 6.246094 7.847656 6.21875 7.84375 6.21875 C 7.839844 6.21875 7.863281 6.246094 7.894531 6.277344 M 13.097656 6.238281 C 13.105469 6.238281 13.121094 6.238281 13.132812 6.238281 C 13.144531 6.234375 13.132812 6.230469 13.113281 6.230469 C 13.09375 6.230469 13.085938 6.234375 13.097656 6.238281 M 8.386719 6.753906 C 8.417969 6.785156 8.445312 6.8125 8.445312 6.8125 C 8.449219 6.8125 8.425781 6.785156 8.394531 6.753906 C 8.363281 6.722656 8.335938 6.699219 8.335938 6.699219 C 8.332031 6.699219 8.355469 6.722656 8.386719 6.753906 M 8.875 7.234375 C 8.90625 7.265625 8.933594 7.292969 8.9375 7.292969 C 8.941406 7.292969 8.917969 7.265625 8.886719 7.234375 C 8.855469 7.203125 8.828125 7.175781 8.824219 7.175781 C 8.820312 7.175781 8.84375 7.203125 8.875 7.234375 M 10.730469 7.496094 C 10.730469 7.519531 10.734375 7.527344 10.738281 7.511719 C 10.738281 7.5 10.738281 7.480469 10.734375 7.472656 C 10.734375 7.460938 10.730469 7.472656 10.730469 7.496094 M 10.800781 7.710938 C 10.800781 7.714844 10.816406 7.730469 10.835938 7.746094 L 10.871094 7.777344 L 10.839844 7.742188 C 10.8125 7.710938 10.800781 7.703125 10.800781 7.710938 M 12.050781 8.726562 C 12.0625 8.730469 12.082031 8.726562 12.089844 8.726562 C 12.101562 8.722656 12.089844 8.722656 12.066406 8.722656 C 12.042969 8.722656 12.035156 8.722656 12.050781 8.726562 M 10.75 9.726562 L 10.703125 9.777344 L 10.753906 9.730469 C 10.785156 9.703125 10.808594 9.679688 10.8125 9.679688 C 10.8125 9.679688 10.8125 9.675781 10.804688 9.675781 C 10.800781 9.675781 10.773438 9.699219 10.75 9.726562 M 12.292969 10.441406 C 12.292969 10.441406 12.308594 10.457031 12.324219 10.472656 L 12.359375 10.503906 L 12.328125 10.472656 C 12.300781 10.441406 12.292969 10.433594 12.292969 10.441406 M 9.78125 10.707031 L 9.652344 10.839844 L 9.785156 10.707031 C 9.90625 10.585938 9.921875 10.574219 9.914062 10.574219 C 9.914062 10.574219 9.851562 10.632812 9.78125 10.707031 M 12.542969 10.679688 C 12.542969 10.683594 12.558594 10.699219 12.574219 10.714844 L 12.609375 10.746094 L 12.578125 10.710938 C 12.550781 10.679688 12.542969 10.671875 12.542969 10.679688 M 10.425781 10.902344 L 10.316406 11.015625 L 10.429688 10.90625 C 10.492188 10.847656 10.542969 10.796875 10.542969 10.792969 C 10.542969 10.785156 10.527344 10.800781 10.425781 10.902344 M 13.03125 11.148438 C 13.03125 11.152344 13.046875 11.167969 13.066406 11.183594 L 13.097656 11.214844 L 13.066406 11.179688 C 13.039062 11.148438 13.03125 11.140625 13.03125 11.148438 M 13.28125 11.390625 C 13.28125 11.390625 13.296875 11.40625 13.316406 11.421875 L 13.347656 11.453125 L 13.316406 11.417969 C 13.289062 11.386719 13.28125 11.378906 13.28125 11.390625 M 8.734375 11.761719 L 8.597656 11.902344 L 8.738281 11.765625 C 8.863281 11.640625 8.878906 11.625 8.871094 11.625 C 8.871094 11.625 8.808594 11.6875 8.734375 11.761719 M 13.769531 11.859375 C 13.769531 11.859375 13.785156 11.875 13.804688 11.890625 L 13.839844 11.921875 L 13.808594 11.886719 C 13.78125 11.855469 13.769531 11.847656 13.769531 11.859375 M 14.019531 12.097656 C 14.019531 12.097656 14.035156 12.113281 14.054688 12.128906 L 14.089844 12.160156 L 14.058594 12.128906 C 14.03125 12.097656 14.019531 12.089844 14.019531 12.097656 M 14.269531 12.335938 C 14.269531 12.339844 14.285156 12.355469 14.304688 12.371094 L 14.339844 12.402344 L 14.308594 12.367188 C 14.28125 12.335938 14.269531 12.328125 14.269531 12.335938 M 7.683594 12.824219 L 7.546875 12.964844 L 7.683594 12.828125 C 7.8125 12.703125 7.828125 12.6875 7.820312 12.6875 C 7.820312 12.6875 7.757812 12.75 7.683594 12.824219 M 14.761719 12.804688 C 14.761719 12.808594 14.777344 12.824219 14.792969 12.839844 L 14.828125 12.871094 L 14.796875 12.835938 C 14.769531 12.804688 14.761719 12.796875 14.761719 12.804688 M 15.011719 13.046875 C 15.011719 13.046875 15.027344 13.0625 15.042969 13.078125 L 15.078125 13.109375 L 15.046875 13.074219 C 15.019531 13.042969 15.011719 13.035156 15.011719 13.046875 M 6.628906 13.886719 L 6.496094 14.027344 L 6.632812 13.890625 C 6.761719 13.765625 6.777344 13.75 6.769531 13.75 C 6.765625 13.75 6.703125 13.8125 6.628906 13.886719 M 13.667969 14.089844 C 13.808594 14.230469 13.925781 14.34375 13.925781 14.34375 C 13.929688 14.34375 13.816406 14.230469 13.675781 14.089844 C 13.535156 13.949219 13.417969 13.832031 13.417969 13.832031 C 13.414062 13.832031 13.527344 13.949219 13.667969 14.089844 "/>
<path style=" stroke:none;fill-rule:evenodd;fill:rgb(60.784314%,87.843137%,98.039216%);fill-opacity:1;" d="M 12.148438 5.367188 C 12.148438 5.378906 12.144531 5.394531 12.148438 5.40625 C 12.152344 5.425781 12.152344 5.421875 12.15625 5.394531 C 12.164062 5.351562 12.160156 5.34375 12.148438 5.367188 M 12.375 5.453125 C 12.394531 5.472656 12.414062 5.488281 12.414062 5.488281 C 12.417969 5.488281 12.40625 5.472656 12.386719 5.453125 C 12.367188 5.433594 12.347656 5.417969 12.34375 5.417969 C 12.34375 5.417969 12.355469 5.433594 12.375 5.453125 M 6.695312 5.445312 C 6.714844 5.449219 6.742188 5.449219 6.757812 5.445312 C 6.773438 5.441406 6.757812 5.441406 6.722656 5.441406 C 6.691406 5.441406 6.675781 5.441406 6.695312 5.445312 M 12.003906 5.605469 L 11.972656 5.640625 L 12.007812 5.609375 C 12.039062 5.582031 12.046875 5.574219 12.039062 5.574219 C 12.035156 5.574219 12.019531 5.589844 12.003906 5.605469 M 11.824219 5.777344 L 11.785156 5.816406 L 11.824219 5.78125 C 11.863281 5.75 11.871094 5.738281 11.863281 5.738281 C 11.859375 5.738281 11.84375 5.757812 11.824219 5.777344 M 12.269531 5.882812 L 12.234375 5.921875 L 12.273438 5.886719 C 12.308594 5.851562 12.316406 5.84375 12.308594 5.84375 C 12.308594 5.84375 12.289062 5.863281 12.269531 5.882812 M 7.558594 5.949219 C 7.609375 6 7.652344 6.042969 7.65625 6.042969 C 7.660156 6.042969 7.617188 6 7.566406 5.949219 C 7.515625 5.894531 7.472656 5.855469 7.46875 5.855469 C 7.464844 5.855469 7.507812 5.894531 7.558594 5.949219 M 11.640625 5.949219 L 11.609375 5.984375 L 11.644531 5.953125 C 11.675781 5.925781 11.683594 5.917969 11.671875 5.917969 C 11.671875 5.917969 11.65625 5.933594 11.640625 5.949219 M 12.089844 6.054688 L 12.058594 6.089844 L 12.089844 6.058594 C 12.121094 6.03125 12.128906 6.019531 12.121094 6.019531 C 12.121094 6.019531 12.105469 6.035156 12.089844 6.054688 M 11.457031 6.121094 L 11.421875 6.160156 L 11.460938 6.125 C 11.496094 6.09375 11.503906 6.082031 11.496094 6.082031 C 11.496094 6.082031 11.476562 6.101562 11.457031 6.121094 M 11.90625 6.226562 L 11.871094 6.265625 L 11.910156 6.230469 C 11.945312 6.195312 11.953125 6.1875 11.945312 6.1875 C 11.941406 6.1875 11.925781 6.207031 11.90625 6.226562 M 11.269531 6.300781 L 11.234375 6.339844 L 11.273438 6.300781 C 11.308594 6.269531 11.316406 6.261719 11.308594 6.261719 C 11.308594 6.261719 11.289062 6.277344 11.269531 6.300781 M 13.308594 6.332031 C 13.328125 6.355469 13.351562 6.375 13.351562 6.375 C 13.355469 6.375 13.339844 6.355469 13.316406 6.332031 C 13.296875 6.308594 13.273438 6.292969 13.273438 6.292969 C 13.269531 6.292969 13.285156 6.308594 13.308594 6.332031 M 8.046875 6.425781 C 8.097656 6.480469 8.140625 6.519531 8.144531 6.519531 C 8.148438 6.519531 8.109375 6.480469 8.058594 6.425781 C 8.007812 6.375 7.960938 6.332031 7.957031 6.332031 C 7.957031 6.332031 7.996094 6.375 8.046875 6.425781 M 11.722656 6.398438 L 11.691406 6.433594 L 11.726562 6.402344 C 11.757812 6.375 11.765625 6.363281 11.757812 6.363281 C 11.753906 6.363281 11.738281 6.378906 11.722656 6.398438 M 12.839844 6.410156 L 12.808594 6.441406 L 12.839844 6.410156 C 12.871094 6.382812 12.878906 6.375 12.871094 6.375 C 12.871094 6.375 12.855469 6.390625 12.839844 6.410156 M 11.089844 6.472656 L 11.058594 6.503906 L 11.089844 6.472656 C 11.121094 6.445312 11.128906 6.4375 11.121094 6.4375 C 11.121094 6.4375 11.105469 6.453125 11.089844 6.472656 M 11.535156 6.574219 L 11.503906 6.609375 L 11.539062 6.578125 C 11.570312 6.550781 11.578125 6.542969 11.570312 6.542969 C 11.566406 6.542969 11.550781 6.558594 11.535156 6.574219 M 12.65625 6.582031 L 12.621094 6.621094 L 12.660156 6.582031 C 12.695312 6.550781 12.703125 6.542969 12.695312 6.542969 C 12.691406 6.542969 12.675781 6.558594 12.65625 6.582031 M 10.90625 6.644531 L 10.871094 6.683594 L 10.910156 6.644531 C 10.945312 6.613281 10.953125 6.605469 10.945312 6.605469 C 10.941406 6.605469 10.925781 6.621094 10.90625 6.644531 M 13.308594 6.667969 L 13.265625 6.714844 L 13.308594 6.671875 C 13.351562 6.632812 13.359375 6.625 13.351562 6.625 C 13.347656 6.625 13.328125 6.644531 13.308594 6.667969 M 11.355469 6.746094 L 11.316406 6.785156 L 11.355469 6.75 C 11.394531 6.71875 11.402344 6.707031 11.394531 6.707031 C 11.390625 6.707031 11.375 6.726562 11.355469 6.746094 M 12.472656 6.753906 L 12.441406 6.785156 L 12.476562 6.753906 C 12.507812 6.726562 12.515625 6.71875 12.507812 6.71875 C 12.503906 6.71875 12.488281 6.734375 12.472656 6.753906 M 10.722656 6.816406 L 10.691406 6.847656 L 10.726562 6.816406 C 10.757812 6.789062 10.765625 6.78125 10.757812 6.78125 C 10.753906 6.78125 10.738281 6.796875 10.722656 6.816406 M 8.535156 6.90625 C 8.585938 6.957031 8.632812 7 8.636719 7 C 8.636719 7 8.597656 6.957031 8.546875 6.90625 C 8.496094 6.855469 8.453125 6.8125 8.449219 6.8125 C 8.445312 6.8125 8.484375 6.855469 8.535156 6.90625 M 13.113281 6.851562 L 13.078125 6.890625 L 13.117188 6.855469 C 13.152344 6.820312 13.160156 6.8125 13.152344 6.8125 C 13.152344 6.8125 13.132812 6.832031 13.113281 6.851562 M 11.171875 6.917969 L 11.140625 6.953125 L 11.175781 6.921875 C 11.207031 6.894531 11.214844 6.886719 11.203125 6.886719 C 11.203125 6.886719 11.1875 6.902344 11.171875 6.917969 M 12.285156 6.929688 L 12.253906 6.964844 L 12.289062 6.933594 C 12.320312 6.90625 12.328125 6.894531 12.320312 6.894531 C 12.316406 6.894531 12.300781 6.910156 12.285156 6.929688 M 10.535156 6.992188 L 10.503906 7.027344 L 10.539062 6.996094 C 10.558594 6.980469 10.574219 6.964844 10.574219 6.960938 C 10.574219 6.953125 10.5625 6.960938 10.535156 6.992188 M 12.933594 7.023438 L 12.902344 7.058594 L 12.933594 7.027344 C 12.964844 7 12.972656 6.988281 12.964844 6.988281 C 12.964844 6.988281 12.949219 7.003906 12.933594 7.023438 M 10.988281 7.089844 L 10.953125 7.128906 L 10.992188 7.09375 C 11.027344 7.0625 11.035156 7.050781 11.027344 7.050781 C 11.027344 7.050781 11.007812 7.070312 10.988281 7.089844 M 12.105469 7.101562 L 12.066406 7.140625 L 12.105469 7.105469 C 12.144531 7.070312 12.152344 7.0625 12.144531 7.0625 C 12.140625 7.0625 12.125 7.082031 12.105469 7.101562 M 10.355469 7.164062 L 10.316406 7.203125 L 10.355469 7.167969 C 10.394531 7.132812 10.402344 7.125 10.394531 7.125 C 10.390625 7.125 10.375 7.144531 10.355469 7.164062 M 12.75 7.195312 L 12.714844 7.234375 L 12.753906 7.199219 C 12.789062 7.164062 12.796875 7.15625 12.789062 7.15625 C 12.785156 7.15625 12.769531 7.175781 12.75 7.195312 M 11.921875 7.273438 L 11.890625 7.308594 L 11.925781 7.277344 C 11.957031 7.25 11.964844 7.238281 11.953125 7.238281 C 11.953125 7.238281 11.9375 7.253906 11.921875 7.273438 M 13.730469 7.308594 L 13.691406 7.347656 L 13.730469 7.3125 C 13.769531 7.28125 13.777344 7.269531 13.769531 7.269531 C 13.765625 7.269531 13.75 7.289062 13.730469 7.308594 M 9.019531 7.378906 C 9.070312 7.429688 9.109375 7.46875 9.113281 7.46875 C 9.117188 7.46875 9.078125 7.429688 9.03125 7.378906 C 8.984375 7.332031 8.941406 7.292969 8.9375 7.292969 C 8.933594 7.292969 8.972656 7.332031 9.019531 7.378906 M 10.171875 7.335938 L 10.140625 7.371094 L 10.175781 7.339844 C 10.207031 7.3125 10.214844 7.300781 10.203125 7.300781 C 10.203125 7.300781 10.1875 7.316406 10.171875 7.335938 M 12.566406 7.367188 L 12.535156 7.402344 L 12.570312 7.371094 C 12.601562 7.34375 12.609375 7.332031 12.601562 7.332031 C 12.597656 7.332031 12.582031 7.347656 12.566406 7.367188 M 11.738281 7.445312 L 11.703125 7.484375 L 11.742188 7.449219 C 11.777344 7.414062 11.785156 7.40625 11.777344 7.40625 C 11.777344 7.40625 11.757812 7.425781 11.738281 7.445312 M 13.542969 7.488281 L 13.503906 7.527344 L 13.542969 7.488281 C 13.582031 7.457031 13.589844 7.449219 13.582031 7.449219 C 13.578125 7.449219 13.5625 7.464844 13.542969 7.488281 M 9.988281 7.507812 L 9.953125 7.546875 L 9.992188 7.511719 C 10.011719 7.492188 10.03125 7.472656 10.03125 7.472656 C 10.03125 7.464844 10.023438 7.472656 9.988281 7.507812 M 12.386719 7.539062 L 12.347656 7.578125 L 12.386719 7.542969 C 12.425781 7.507812 12.433594 7.5 12.425781 7.5 C 12.421875 7.5 12.40625 7.519531 12.386719 7.539062 M 14.175781 7.589844 L 14.140625 7.628906 L 14.179688 7.59375 C 14.214844 7.5625 14.222656 7.550781 14.214844 7.550781 C 14.214844 7.550781 14.195312 7.570312 14.175781 7.589844 M 11.558594 7.617188 L 11.527344 7.652344 L 11.558594 7.621094 C 11.589844 7.59375 11.597656 7.582031 11.589844 7.582031 C 11.589844 7.582031 11.574219 7.597656 11.558594 7.617188 M 13.359375 7.660156 L 13.328125 7.691406 L 13.363281 7.660156 C 13.394531 7.632812 13.402344 7.625 13.390625 7.625 C 13.390625 7.625 13.375 7.640625 13.359375 7.660156 M 9.800781 7.683594 L 9.765625 7.722656 L 9.804688 7.6875 C 9.824219 7.667969 9.84375 7.652344 9.84375 7.648438 C 9.84375 7.640625 9.835938 7.648438 9.800781 7.683594 M 12.203125 7.710938 L 12.171875 7.746094 L 12.207031 7.714844 C 12.238281 7.6875 12.246094 7.675781 12.234375 7.675781 C 12.234375 7.675781 12.21875 7.691406 12.203125 7.710938 M 13.996094 7.761719 L 13.964844 7.796875 L 13.996094 7.765625 C 14.027344 7.738281 14.035156 7.730469 14.027344 7.730469 C 14.027344 7.730469 14.011719 7.746094 13.996094 7.761719 M 13.171875 7.835938 L 13.140625 7.871094 L 13.175781 7.839844 C 13.207031 7.8125 13.214844 7.800781 13.203125 7.800781 C 13.203125 7.800781 13.1875 7.816406 13.171875 7.835938 M 12.015625 7.886719 L 11.984375 7.921875 L 12.019531 7.890625 C 12.050781 7.863281 12.058594 7.855469 12.046875 7.855469 C 12.046875 7.855469 12.03125 7.871094 12.015625 7.886719 M 13.808594 7.941406 L 13.777344 7.972656 L 13.808594 7.941406 C 13.839844 7.914062 13.847656 7.90625 13.839844 7.90625 C 13.839844 7.90625 13.824219 7.921875 13.808594 7.941406 M 12.988281 8.007812 L 12.953125 8.046875 L 12.992188 8.011719 C 13.027344 7.976562 13.035156 7.96875 13.027344 7.96875 C 13.027344 7.96875 13.007812 7.988281 12.988281 8.007812 M 11.832031 8.058594 L 11.796875 8.097656 L 11.835938 8.0625 C 11.871094 8.03125 11.878906 8.019531 11.871094 8.019531 C 11.871094 8.019531 11.851562 8.039062 11.832031 8.058594 M 13.625 8.113281 L 13.589844 8.152344 L 13.628906 8.113281 C 13.664062 8.082031 13.671875 8.074219 13.664062 8.074219 C 13.660156 8.074219 13.644531 8.089844 13.625 8.113281 M 12.800781 8.183594 L 12.765625 8.222656 L 12.804688 8.1875 C 12.839844 8.15625 12.847656 8.144531 12.839844 8.144531 C 12.839844 8.144531 12.820312 8.164062 12.800781 8.183594 M 13.441406 8.285156 L 13.410156 8.316406 L 13.445312 8.285156 C 13.476562 8.257812 13.484375 8.25 13.476562 8.25 C 13.472656 8.25 13.457031 8.265625 13.441406 8.285156 M 12.621094 8.355469 L 12.589844 8.390625 L 12.621094 8.359375 C 12.652344 8.332031 12.660156 8.324219 12.652344 8.324219 C 12.652344 8.324219 12.636719 8.339844 12.621094 8.355469 M 13.261719 8.457031 L 13.222656 8.496094 L 13.261719 8.457031 C 13.300781 8.425781 13.308594 8.417969 13.300781 8.417969 C 13.296875 8.417969 13.28125 8.433594 13.261719 8.457031 M 12.433594 8.535156 L 12.402344 8.566406 L 12.433594 8.535156 C 12.464844 8.507812 12.472656 8.5 12.464844 8.5 C 12.464844 8.5 12.449219 8.515625 12.433594 8.535156 M 11.765625 8.605469 C 11.789062 8.628906 11.808594 8.644531 11.8125 8.644531 C 11.8125 8.644531 11.796875 8.628906 11.777344 8.605469 C 11.753906 8.582031 11.734375 8.5625 11.730469 8.5625 C 11.726562 8.5625 11.742188 8.582031 11.765625 8.605469 M 13.078125 8.628906 L 13.046875 8.660156 L 13.082031 8.628906 C 13.113281 8.601562 13.121094 8.59375 13.109375 8.59375 C 13.109375 8.59375 13.09375 8.609375 13.078125 8.628906 M 9.804688 8.714844 C 9.824219 8.738281 9.839844 8.753906 9.84375 8.753906 C 9.847656 8.75 9.828125 8.730469 9.808594 8.710938 L 9.765625 8.671875 L 9.804688 8.714844 M 12.894531 8.800781 L 12.859375 8.839844 L 12.898438 8.800781 C 12.933594 8.769531 12.941406 8.761719 12.933594 8.761719 C 12.933594 8.761719 12.914062 8.777344 12.894531 8.800781 M 12.714844 8.972656 L 12.683594 9.003906 L 12.714844 8.972656 C 12.746094 8.945312 12.753906 8.9375 12.746094 8.9375 C 12.746094 8.9375 12.730469 8.953125 12.714844 8.972656 M 12.527344 9.148438 L 12.496094 9.183594 L 12.527344 9.152344 C 12.558594 9.125 12.566406 9.113281 12.558594 9.113281 C 12.558594 9.113281 12.542969 9.128906 12.527344 9.148438 M 12.34375 9.320312 L 12.308594 9.359375 L 12.347656 9.324219 C 12.382812 9.289062 12.390625 9.28125 12.382812 9.28125 C 12.378906 9.28125 12.363281 9.300781 12.34375 9.320312 M 12.160156 9.492188 L 12.128906 9.527344 L 12.164062 9.496094 C 12.195312 9.46875 12.203125 9.457031 12.195312 9.457031 C 12.191406 9.457031 12.175781 9.472656 12.160156 9.492188 M 11.980469 9.664062 L 11.941406 9.703125 L 11.980469 9.667969 C 12.019531 9.632812 12.027344 9.625 12.019531 9.625 C 12.015625 9.625 12 9.644531 11.980469 9.664062 M 10.503906 9.972656 L 10.308594 10.171875 L 10.507812 9.972656 C 10.617188 9.867188 10.707031 9.773438 10.707031 9.773438 C 10.707031 9.765625 10.6875 9.785156 10.503906 9.972656 M 12.394531 10.542969 C 12.4375 10.589844 12.449219 10.597656 12.449219 10.589844 C 12.449219 10.589844 12.425781 10.566406 12.398438 10.542969 L 12.347656 10.496094 L 12.394531 10.542969 M 11.316406 10.582031 C 11.324219 10.582031 11.339844 10.582031 11.351562 10.582031 C 11.363281 10.578125 11.351562 10.574219 11.332031 10.574219 C 11.3125 10.574219 11.304688 10.578125 11.316406 10.582031 M 11.429688 10.582031 C 11.445312 10.582031 11.46875 10.582031 11.480469 10.582031 C 11.496094 10.578125 11.480469 10.574219 11.453125 10.574219 C 11.425781 10.574219 11.414062 10.578125 11.429688 10.582031 M 12.640625 10.78125 C 12.664062 10.804688 12.683594 10.824219 12.6875 10.824219 C 12.6875 10.824219 12.671875 10.804688 12.652344 10.78125 C 12.628906 10.757812 12.609375 10.738281 12.605469 10.738281 C 12.601562 10.738281 12.617188 10.757812 12.640625 10.78125 M 9.453125 11.035156 L 9.253906 11.234375 L 9.457031 11.035156 C 9.566406 10.929688 9.65625 10.835938 9.65625 10.835938 C 9.65625 10.828125 9.636719 10.847656 9.453125 11.035156 M 12.886719 11.011719 C 12.929688 11.058594 12.9375 11.066406 12.9375 11.058594 C 12.9375 11.058594 12.914062 11.035156 12.886719 11.011719 L 12.839844 10.964844 L 12.886719 11.011719 M 10.15625 11.175781 L 9.996094 11.339844 L 10.160156 11.175781 C 10.3125 11.027344 10.328125 11.011719 10.320312 11.011719 C 10.320312 11.011719 10.246094 11.085938 10.15625 11.175781 M 13.136719 11.253906 C 13.179688 11.296875 13.1875 11.308594 13.1875 11.300781 C 13.1875 11.296875 13.164062 11.273438 13.136719 11.25 L 13.089844 11.203125 L 13.136719 11.253906 M 11.292969 11.703125 C 11.484375 11.894531 11.644531 12.050781 11.644531 12.050781 C 11.648438 12.050781 11.492188 11.894531 11.300781 11.703125 C 11.109375 11.511719 10.949219 11.355469 10.949219 11.355469 C 10.945312 11.355469 11.101562 11.511719 11.292969 11.703125 M 13.378906 11.488281 C 13.402344 11.511719 13.421875 11.53125 13.425781 11.53125 C 13.429688 11.53125 13.414062 11.511719 13.390625 11.488281 C 13.367188 11.464844 13.347656 11.449219 13.34375 11.449219 C 13.34375 11.449219 13.359375 11.464844 13.378906 11.488281 M 13.625 11.722656 C 13.667969 11.765625 13.675781 11.777344 13.675781 11.769531 C 13.675781 11.765625 13.65625 11.742188 13.628906 11.71875 L 13.578125 11.671875 L 13.625 11.722656 M 8.402344 12.097656 L 8.203125 12.296875 L 8.402344 12.097656 C 8.515625 11.992188 8.605469 11.898438 8.605469 11.898438 C 8.605469 11.890625 8.585938 11.910156 8.402344 12.097656 M 13.875 11.960938 C 13.917969 12.007812 13.925781 12.015625 13.925781 12.007812 C 13.925781 12.003906 13.90625 11.984375 13.878906 11.957031 L 13.828125 11.910156 L 13.875 11.960938 M 14.125 12.199219 C 14.167969 12.246094 14.175781 12.253906 14.175781 12.246094 C 14.175781 12.246094 14.15625 12.222656 14.128906 12.199219 L 14.078125 12.152344 L 14.125 12.199219 M 14.371094 12.4375 C 14.390625 12.460938 14.414062 12.480469 14.414062 12.480469 C 14.417969 12.480469 14.402344 12.460938 14.378906 12.4375 C 14.359375 12.414062 14.335938 12.394531 14.335938 12.394531 C 14.332031 12.394531 14.347656 12.414062 14.371094 12.4375 M 14.613281 12.667969 C 14.65625 12.714844 14.667969 12.722656 14.667969 12.714844 C 14.667969 12.714844 14.644531 12.691406 14.617188 12.667969 L 14.566406 12.621094 L 14.613281 12.667969 M 14.863281 12.910156 C 14.90625 12.953125 14.917969 12.964844 14.917969 12.957031 C 14.917969 12.953125 14.894531 12.929688 14.867188 12.90625 L 14.816406 12.859375 L 14.863281 12.910156 M 7.347656 13.160156 L 7.152344 13.359375 L 7.351562 13.160156 C 7.539062 12.976562 7.558594 12.957031 7.550781 12.957031 C 7.546875 12.957031 7.457031 13.046875 7.347656 13.160156 M 15.109375 13.144531 C 15.132812 13.167969 15.152344 13.1875 15.15625 13.1875 C 15.15625 13.1875 15.140625 13.167969 15.121094 13.144531 C 15.097656 13.121094 15.078125 13.105469 15.074219 13.105469 C 15.070312 13.105469 15.085938 13.121094 15.109375 13.144531 M 15.355469 13.558594 C 15.355469 13.582031 15.359375 13.589844 15.363281 13.574219 C 15.363281 13.5625 15.363281 13.542969 15.359375 13.535156 C 15.359375 13.523438 15.355469 13.535156 15.355469 13.558594 M 15.128906 14.011719 L 15.097656 14.046875 L 15.132812 14.015625 C 15.164062 13.988281 15.171875 13.980469 15.164062 13.980469 C 15.160156 13.980469 15.144531 13.996094 15.128906 14.011719 M 6.328125 14.191406 L 6.160156 14.359375 L 6.332031 14.191406 C 6.425781 14.101562 6.5 14.023438 6.5 14.023438 C 6.5 14.015625 6.484375 14.03125 6.328125 14.191406 M 14.957031 14.175781 L 14.921875 14.214844 L 14.960938 14.175781 C 14.996094 14.144531 15.003906 14.136719 14.996094 14.136719 C 14.996094 14.136719 14.976562 14.152344 14.957031 14.175781 "/>
<path style=" stroke:none;fill-rule:evenodd;fill:rgb(17.254902%,73.72549%,95.686275%);fill-opacity:1;" d="M 7.292969 5.683594 C 7.324219 5.714844 7.351562 5.738281 7.351562 5.738281 C 7.355469 5.738281 7.332031 5.714844 7.300781 5.683594 C 7.269531 5.652344 7.242188 5.625 7.242188 5.625 C 7.238281 5.625 7.261719 5.652344 7.292969 5.683594 M 12.347656 5.816406 L 12.316406 5.847656 L 12.351562 5.816406 C 12.382812 5.789062 12.390625 5.78125 12.382812 5.78125 C 12.378906 5.78125 12.363281 5.796875 12.347656 5.816406 M 11.746094 5.847656 L 11.714844 5.878906 L 11.746094 5.847656 C 11.777344 5.820312 11.785156 5.8125 11.777344 5.8125 C 11.777344 5.8125 11.761719 5.828125 11.746094 5.847656 M 7.6875 6.066406 C 7.6875 6.066406 7.722656 6.101562 7.769531 6.144531 L 7.847656 6.222656 L 7.769531 6.144531 C 7.699219 6.066406 7.6875 6.058594 7.6875 6.066406 M 5.804688 6.527344 C 5.804688 6.558594 5.808594 6.574219 5.808594 6.554688 C 5.8125 6.535156 5.8125 6.507812 5.808594 6.492188 C 5.808594 6.476562 5.804688 6.492188 5.804688 6.527344 M 8.175781 6.542969 C 8.175781 6.546875 8.214844 6.582031 8.257812 6.625 L 8.339844 6.703125 L 8.261719 6.621094 C 8.1875 6.546875 8.175781 6.535156 8.175781 6.542969 M 12.578125 6.648438 L 12.546875 6.683594 L 12.582031 6.652344 C 12.613281 6.625 12.621094 6.613281 12.609375 6.613281 C 12.609375 6.613281 12.59375 6.628906 12.578125 6.648438 M 11.433594 6.679688 L 11.402344 6.714844 L 11.433594 6.683594 C 11.464844 6.65625 11.472656 6.644531 11.464844 6.644531 C 11.464844 6.644531 11.449219 6.660156 11.433594 6.679688 M 10.828125 6.710938 L 10.796875 6.746094 L 10.832031 6.714844 C 10.863281 6.6875 10.871094 6.675781 10.859375 6.675781 C 10.859375 6.675781 10.84375 6.691406 10.828125 6.710938 M 13.191406 6.785156 L 13.160156 6.816406 L 13.195312 6.785156 C 13.226562 6.757812 13.234375 6.75 13.226562 6.75 C 13.222656 6.75 13.207031 6.765625 13.191406 6.785156 M 11.066406 7.023438 L 11.035156 7.058594 L 11.070312 7.027344 C 11.101562 7 11.109375 6.988281 11.101562 6.988281 C 11.097656 6.988281 11.082031 7.003906 11.066406 7.023438 M 8.667969 7.023438 C 8.667969 7.023438 8.703125 7.0625 8.746094 7.105469 L 8.828125 7.183594 L 8.75 7.101562 C 8.679688 7.027344 8.667969 7.015625 8.667969 7.023438 M 12.828125 7.128906 L 12.796875 7.160156 L 12.832031 7.128906 C 12.863281 7.101562 12.871094 7.09375 12.859375 7.09375 C 12.859375 7.09375 12.84375 7.109375 12.828125 7.128906 M 12.027344 7.167969 L 11.996094 7.203125 L 12.027344 7.171875 C 12.058594 7.144531 12.066406 7.136719 12.058594 7.136719 C 12.058594 7.136719 12.042969 7.152344 12.027344 7.167969 M 13.652344 7.378906 L 13.621094 7.410156 L 13.652344 7.378906 C 13.683594 7.351562 13.691406 7.34375 13.683594 7.34375 C 13.683594 7.34375 13.667969 7.359375 13.652344 7.378906 M 14.253906 7.523438 L 14.222656 7.558594 L 14.257812 7.527344 C 14.289062 7.5 14.296875 7.488281 14.289062 7.488281 C 14.285156 7.488281 14.269531 7.503906 14.253906 7.523438 M 9.910156 7.574219 L 9.878906 7.609375 L 9.914062 7.578125 C 9.933594 7.5625 9.949219 7.546875 9.949219 7.546875 C 9.949219 7.535156 9.9375 7.542969 9.910156 7.574219 M 12.722656 8.253906 L 12.691406 8.285156 L 12.726562 8.253906 C 12.757812 8.226562 12.765625 8.21875 12.757812 8.21875 C 12.753906 8.21875 12.738281 8.234375 12.722656 8.253906 M 13.339844 8.386719 L 13.308594 8.421875 L 13.339844 8.390625 C 13.371094 8.363281 13.378906 8.355469 13.371094 8.355469 C 13.371094 8.355469 13.355469 8.371094 13.339844 8.386719 M 12.058594 9.597656 L 12.027344 9.628906 L 12.058594 9.597656 C 12.089844 9.570312 12.097656 9.5625 12.089844 9.5625 C 12.089844 9.5625 12.074219 9.578125 12.058594 9.597656 M 10.8125 9.691406 C 10.8125 9.691406 10.828125 9.707031 10.847656 9.722656 L 10.878906 9.753906 L 10.847656 9.722656 C 10.820312 9.691406 10.8125 9.683594 10.8125 9.691406 M 11.367188 9.945312 C 11.382812 9.949219 11.40625 9.949219 11.417969 9.945312 C 11.433594 9.941406 11.417969 9.941406 11.390625 9.941406 C 11.363281 9.941406 11.351562 9.941406 11.367188 9.945312 M 10.078125 10.410156 L 9.910156 10.578125 L 10.082031 10.410156 C 10.238281 10.257812 10.253906 10.238281 10.246094 10.238281 C 10.246094 10.238281 10.167969 10.316406 10.078125 10.410156 M 12.25 10.402344 C 12.269531 10.421875 12.289062 10.4375 12.289062 10.4375 C 12.292969 10.4375 12.28125 10.421875 12.261719 10.402344 C 12.242188 10.382812 12.222656 10.363281 12.21875 10.363281 C 12.21875 10.363281 12.230469 10.382812 12.25 10.402344 M 10.671875 10.660156 L 10.535156 10.796875 L 10.675781 10.660156 C 10.75 10.585938 10.8125 10.523438 10.8125 10.523438 C 10.8125 10.515625 10.796875 10.53125 10.671875 10.660156 M 12.5 10.640625 C 12.519531 10.660156 12.539062 10.675781 12.539062 10.675781 C 12.542969 10.675781 12.53125 10.660156 12.511719 10.640625 C 12.492188 10.621094 12.472656 10.605469 12.46875 10.605469 C 12.46875 10.605469 12.480469 10.621094 12.5 10.640625 M 12.746094 10.875 C 12.765625 10.898438 12.789062 10.917969 12.789062 10.917969 C 12.792969 10.917969 12.777344 10.898438 12.753906 10.875 C 12.734375 10.851562 12.710938 10.832031 12.710938 10.832031 C 12.707031 10.832031 12.722656 10.851562 12.746094 10.875 M 12.988281 11.109375 C 13.007812 11.128906 13.027344 11.144531 13.03125 11.144531 C 13.03125 11.144531 13.019531 11.128906 13 11.109375 C 12.980469 11.089844 12.960938 11.074219 12.960938 11.074219 C 12.957031 11.074219 12.96875 11.089844 12.988281 11.109375 M 9.03125 11.464844 L 8.871094 11.628906 L 9.035156 11.46875 C 9.1875 11.320312 9.203125 11.300781 9.195312 11.300781 C 9.195312 11.300781 9.121094 11.375 9.03125 11.464844 M 13.238281 11.347656 C 13.257812 11.367188 13.277344 11.386719 13.28125 11.386719 C 13.28125 11.386719 13.269531 11.367188 13.25 11.347656 C 13.230469 11.328125 13.210938 11.3125 13.210938 11.3125 C 13.207031 11.3125 13.21875 11.328125 13.238281 11.347656 M 9.910156 11.40625 C 9.894531 11.421875 9.882812 11.4375 9.886719 11.441406 C 9.886719 11.441406 9.902344 11.429688 9.921875 11.410156 C 9.957031 11.367188 9.953125 11.363281 9.910156 11.40625 M 13.488281 11.589844 C 13.507812 11.609375 13.527344 11.625 13.53125 11.625 C 13.53125 11.625 13.519531 11.609375 13.5 11.589844 C 13.480469 11.570312 13.460938 11.550781 13.460938 11.550781 C 13.457031 11.550781 13.46875 11.570312 13.488281 11.589844 M 13.730469 11.816406 C 13.75 11.835938 13.765625 11.855469 13.769531 11.855469 C 13.773438 11.855469 13.757812 11.835938 13.738281 11.816406 C 13.71875 11.796875 13.703125 11.78125 13.699219 11.78125 C 13.695312 11.78125 13.710938 11.796875 13.730469 11.816406 M 13.980469 12.058594 C 14 12.078125 14.015625 12.09375 14.019531 12.09375 C 14.023438 12.09375 14.007812 12.078125 13.988281 12.058594 C 13.96875 12.039062 13.953125 12.019531 13.949219 12.019531 C 13.945312 12.019531 13.960938 12.039062 13.980469 12.058594 M 14.230469 12.296875 C 14.25 12.316406 14.265625 12.332031 14.269531 12.332031 C 14.273438 12.332031 14.257812 12.316406 14.238281 12.296875 C 14.21875 12.277344 14.203125 12.261719 14.199219 12.261719 C 14.195312 12.261719 14.210938 12.277344 14.230469 12.296875 M 12.671875 13.09375 C 13.078125 13.5 13.414062 13.832031 13.417969 13.832031 C 13.417969 13.832031 13.089844 13.5 12.683594 13.09375 C 12.277344 12.6875 11.941406 12.355469 11.9375 12.355469 C 11.933594 12.355469 12.265625 12.6875 12.671875 13.09375 M 7.980469 12.527344 L 7.816406 12.691406 L 7.980469 12.53125 C 8.132812 12.382812 8.152344 12.363281 8.144531 12.363281 C 8.140625 12.363281 8.066406 12.4375 7.980469 12.527344 M 14.472656 12.53125 C 14.496094 12.554688 14.515625 12.574219 14.519531 12.574219 C 14.523438 12.574219 14.507812 12.554688 14.484375 12.53125 C 14.460938 12.507812 14.441406 12.488281 14.4375 12.488281 C 14.4375 12.488281 14.453125 12.507812 14.472656 12.53125 M 14.71875 12.765625 C 14.738281 12.785156 14.757812 12.800781 14.757812 12.800781 C 14.761719 12.800781 14.75 12.785156 14.730469 12.765625 C 14.710938 12.746094 14.691406 12.730469 14.6875 12.730469 C 14.6875 12.730469 14.699219 12.746094 14.71875 12.765625 M 14.96875 13.003906 C 14.988281 13.023438 15.007812 13.042969 15.007812 13.042969 C 15.011719 13.042969 15 13.023438 14.980469 13.003906 C 14.960938 12.984375 14.941406 12.96875 14.9375 12.96875 C 14.9375 12.96875 14.949219 12.984375 14.96875 13.003906 M 6.925781 13.589844 L 6.765625 13.753906 L 6.929688 13.59375 C 7.082031 13.445312 7.097656 13.425781 7.089844 13.425781 C 7.089844 13.425781 7.015625 13.5 6.925781 13.589844 M 4.957031 13.964844 C 4.976562 13.984375 4.996094 14 5 14 C 5 14 4.988281 13.984375 4.96875 13.964844 C 4.949219 13.945312 4.929688 13.925781 4.929688 13.925781 C 4.925781 13.925781 4.9375 13.945312 4.957031 13.964844 "/>
</g>
</svg>
